<?xml version="1.0" standalone="no"?>
<!DOCTYPE svg PUBLIC "-//W3C//DTD SVG 20010904//EN"
 "http://www.w3.org/TR/2001/REC-SVG-20010904/DTD/svg10.dtd">
<svg version="1.0" xmlns="http://www.w3.org/2000/svg"
 width="1080.000000pt" height="1080.000000pt" viewBox="0 0 1080.000000 1080.000000"
 preserveAspectRatio="xMidYMid meet">
<metadata>
Created by potrace 1.14, written by Peter Selinger 2001-2017
</metadata>
<g transform="translate(0.000000,1080.000000) scale(0.100000,-0.100000)"
fill="#000000" stroke="none">
<path d="M7070 9004 c-104 -16 -180 -39 -295 -91 -75 -34 -151 -91 -270 -205
-77 -74 -161 -142 -244 -197 -69 -46 -171 -116 -226 -156 -56 -40 -157 -104
-225 -143 -270 -152 -390 -223 -507 -299 -45 -29 -84 -53 -87 -53 -14 0 -239
-137 -321 -195 -49 -35 -144 -100 -210 -144 -66 -44 -124 -84 -130 -88 -5 -5
-22 -16 -37 -26 -38 -24 -178 -137 -268 -217 -41 -37 -102 -87 -135 -112 -80
-62 -464 -453 -592 -603 -140 -165 -168 -199 -248 -306 -38 -51 -84 -109 -100
-128 -17 -20 -51 -67 -76 -106 -67 -103 -113 -171 -174 -255 -30 -41 -54 -78
-55 -82 -1 -26 -83 -138 -143 -196 -146 -142 -224 -239 -285 -355 -93 -178
-114 -317 -116 -782 0 -200 1 -217 33 -370 52 -254 168 -589 264 -765 53 -96
128 -209 181 -270 22 -26 64 -74 91 -106 114 -133 265 -265 355 -309 19 -10
42 -23 50 -30 15 -12 118 -54 245 -99 124 -43 148 -57 265 -145 183 -139 310
-196 550 -248 122 -26 134 -27 475 -27 193 -1 438 5 545 12 170 11 214 11 344
-3 119 -12 170 -13 255 -5 101 11 137 19 331 77 96 29 265 110 356 171 73 48
261 217 359 322 93 99 105 116 291 435 16 28 45 84 64 125 19 41 64 131 100
200 129 252 223 474 387 915 134 363 239 737 304 1079 47 252 57 313 95 601
51 389 52 397 60 587 9 258 -14 449 -92 763 -40 160 -168 508 -225 615 -51 96
-220 466 -248 545 -18 50 -36 99 -41 110 -5 11 -28 67 -51 124 -83 207 -166
314 -290 377 -96 48 -219 71 -309 58z m-2412 -3373 c97 -49 202 -98 232 -109
100 -36 183 -91 280 -186 105 -102 172 -149 270 -189 63 -25 139 -59 170 -76
8 -4 103 -54 210 -111 387 -204 396 -211 645 -457 224 -222 290 -301 358 -431
130 -250 181 -446 180 -697 0 -139 -21 -232 -77 -349 -49 -103 -79 -183 -130
-341 -19 -61 -46 -130 -60 -155 -76 -135 -319 -288 -587 -370 -191 -58 -269
-66 -454 -46 -144 16 -162 16 -425 -4 -432 -32 -738 -24 -927 24 -161 41 -235
79 -368 186 -143 116 -198 145 -460 241 -128 47 -253 143 -392 302 -111 126
-145 170 -198 253 -108 167 -234 508 -291 784 l-37 175 7 262 c9 364 26 455
107 594 79 135 195 254 359 367 69 47 163 115 209 150 103 79 151 101 311 141
163 40 279 58 464 71 83 6 187 20 231 30 74 18 116 24 173 28 12 1 102 -38
200 -87z"/>
<path d="M4250 4033 c-59 -23 -83 -91 -54 -154 21 -47 57 -69 113 -69 32 0 44
6 65 31 14 17 28 40 32 52 8 33 -17 98 -46 118 -27 20 -86 31 -110 22z"/>
<path d="M4845 3827 c-39 -39 -44 -70 -20 -117 36 -70 109 -90 163 -45 75 63
31 175 -74 192 -29 5 -38 1 -69 -30z"/>
<path d="M3723 3785 c-13 -9 -27 -33 -34 -53 -16 -56 2 -89 143 -262 68 -84
144 -178 170 -210 60 -74 102 -100 161 -100 49 0 80 21 98 68 17 44 -11 96
-119 222 -25 29 -107 130 -202 248 -39 48 -77 85 -94 92 -42 15 -98 12 -123
-5z"/>
</g>
</svg>
